<svg xmlns="http://www.w3.org/2000/svg" xmlns:xlink="http://www.w3.org/1999/xlink" version="1.1" class="marks" width="600" height="300" viewBox="0 0 600 300"><rect width="600" height="300" fill="white"/><g fill="none" stroke-miterlimit="10" transform="translate(47,27)"><g class="mark-group role-frame root" role="graphics-object" aria-roledescription="group mark container"><g transform="translate(0,0)"><path class="background" aria-hidden="true" d="M0.5,0.5h356v236h-356Z" stroke="#ddd"/><g><g class="mark-group role-axis" aria-hidden="true"><g transform="translate(0.5,236.5)"><path class="background" aria-hidden="true" d="M0,0h0v0h0Z" pointer-events="none"/><g><g class="mark-rule role-axis-grid" pointer-events="none"><line transform="translate(0,-236)" x2="0" y2="236" stroke="#ddd" stroke-width="1" opacity="1"/><line transform="translate(32,-236)" x2="0" y2="236" stroke="#ddd" stroke-width="1" opacity="1"/><line transform="translate(65,-236)" x2="0" y2="236" stroke="#ddd" stroke-width="1" opacity="1"/><line transform="translate(97,-236)" x2="0" y2="236" stroke="#ddd" stroke-width="1" opacity="1"/><line transform="translate(129,-236)" x2="0" y2="236" stroke="#ddd" stroke-width="1" opacity="1"/><line transform="translate(162,-236)" x2="0" y2="236" stroke="#ddd" stroke-width="1" opacity="1"/><line transform="translate(194,-236)" x2="0" y2="236" stroke="#ddd" stroke-width="1" opacity="1"/><line transform="translate(227,-236)" x2="0" y2="236" stroke="#ddd" stroke-width="1" opacity="1"/><line transform="translate(259,-236)" x2="0" y2="236" stroke="#ddd" stroke-width="1" opacity="1"/><line transform="translate(291,-236)" x2="0" y2="236" stroke="#ddd" stroke-width="1" opacity="1"/><line transform="translate(324,-236)" x2="0" y2="236" stroke="#ddd" stroke-width="1" opacity="1"/><line transform="translate(356,-236)" x2="0" y2="236" stroke="#ddd" stroke-width="1" opacity="1"/></g></g><path class="foreground" aria-hidden="true" d="" pointer-events="none" display="none"/></g></g><g class="mark-group role-axis" aria-hidden="true"><g transform="translate(0.5,0.5)"><path class="background" aria-hidden="true" d="M0,0h0v0h0Z" pointer-events="none"/><g><g class="mark-rule role-axis-grid" pointer-events="none"><line transform="translate(0,236)" x2="356" y2="0" stroke="#ddd" stroke-width="1" opacity="1"/><line transform="translate(0,210)" x2="356" y2="0" stroke="#ddd" stroke-width="1" opacity="1"/><line transform="translate(0,184)" x2="356" y2="0" stroke="#ddd" stroke-width="1" opacity="1"/><line transform="translate(0,157)" x2="356" y2="0" stroke="#ddd" stroke-width="1" opacity="1"/><line transform="translate(0,131)" x2="356" y2="0" stroke="#ddd" stroke-width="1" opacity="1"/><line transform="translate(0,105)" x2="356" y2="0" stroke="#ddd" stroke-width="1" opacity="1"/><line transform="translate(0,79)" x2="356" y2="0" stroke="#ddd" stroke-width="1" opacity="1"/><line transform="translate(0,52)" x2="356" y2="0" stroke="#ddd" stroke-width="1" opacity="1"/><line transform="translate(0,26)" x2="356" y2="0" stroke="#ddd" stroke-width="1" opacity="1"/><line transform="translate(0,0)" x2="356" y2="0" stroke="#ddd" stroke-width="1" opacity="1"/></g></g><path class="foreground" aria-hidden="true" d="" pointer-events="none" display="none"/></g></g><g class="mark-group role-axis" role="graphics-symbol" aria-roledescription="axis" aria-label="X-axis titled 'frequency' for a linear scale with values from 0 to 550"><g transform="translate(0.5,236.5)"><path class="background" aria-hidden="true" d="M0,0h0v0h0Z" pointer-events="none"/><g><g class="mark-rule role-axis-tick" pointer-events="none"><line transform="translate(0,0)" x2="0" y2="5" stroke="#888" stroke-width="1" opacity="1"/><line transform="translate(32,0)" x2="0" y2="5" stroke="#888" stroke-width="1" opacity="1"/><line transform="translate(65,0)" x2="0" y2="5" stroke="#888" stroke-width="1" opacity="1"/><line transform="translate(97,0)" x2="0" y2="5" stroke="#888" stroke-width="1" opacity="1"/><line transform="translate(129,0)" x2="0" y2="5" stroke="#888" stroke-width="1" opacity="1"/><line transform="translate(162,0)" x2="0" y2="5" stroke="#888" stroke-width="1" opacity="1"/><line transform="translate(194,0)" x2="0" y2="5" stroke="#888" stroke-width="1" opacity="1"/><line transform="translate(227,0)" x2="0" y2="5" stroke="#888" stroke-width="1" opacity="1"/><line transform="translate(259,0)" x2="0" y2="5" stroke="#888" stroke-width="1" opacity="1"/><line transform="translate(291,0)" x2="0" y2="5" stroke="#888" stroke-width="1" opacity="1"/><line transform="translate(324,0)" x2="0" y2="5" stroke="#888" stroke-width="1" opacity="1"/><line transform="translate(356,0)" x2="0" y2="5" stroke="#888" stroke-width="1" opacity="1"/></g><g class="mark-text role-axis-label" pointer-events="none"><text text-anchor="start" transform="translate(0,15)" font-family="sans-serif" font-size="10px" fill="#000" opacity="1">0</text><text text-anchor="middle" transform="translate(32.36363636363637,15)" font-family="sans-serif" font-size="10px" fill="#000" opacity="1">50</text><text text-anchor="middle" transform="translate(64.72727272727273,15)" font-family="sans-serif" font-size="10px" fill="#000" opacity="1">100</text><text text-anchor="middle" transform="translate(97.09090909090908,15)" font-family="sans-serif" font-size="10px" fill="#000" opacity="1">150</text><text text-anchor="middle" transform="translate(129.45454545454547,15)" font-family="sans-serif" font-size="10px" fill="#000" opacity="1">200</text><text text-anchor="middle" transform="translate(161.8181818181818,15)" font-family="sans-serif" font-size="10px" fill="#000" opacity="1">250</text><text text-anchor="middle" transform="translate(194.18181818181816,15)" font-family="sans-serif" font-size="10px" fill="#000" opacity="1">300</text><text text-anchor="middle" transform="translate(226.54545454545453,15)" font-family="sans-serif" font-size="10px" fill="#000" opacity="1">350</text><text text-anchor="middle" transform="translate(258.90909090909093,15)" font-family="sans-serif" font-size="10px" fill="#000" opacity="1">400</text><text text-anchor="middle" transform="translate(291.2727272727273,15)" font-family="sans-serif" font-size="10px" fill="#000" opacity="1">450</text><text text-anchor="middle" transform="translate(323.6363636363636,15)" font-family="sans-serif" font-size="10px" fill="#000" opacity="1">500</text><text text-anchor="end" transform="translate(356,15)" font-family="sans-serif" font-size="10px" fill="#000" opacity="1">550</text></g><g class="mark-rule role-axis-domain" pointer-events="none"><line transform="translate(0,0)" x2="356" y2="0" stroke="#888" stroke-width="1" opacity="1"/></g><g class="mark-text role-axis-title" pointer-events="none"><text text-anchor="middle" transform="translate(178,30)" font-family="sans-serif" font-size="11px" font-weight="bold" fill="#000" opacity="1">frequency</text></g></g><path class="foreground" aria-hidden="true" d="" pointer-events="none" display="none"/></g></g><g class="mark-group role-axis" role="graphics-symbol" aria-roledescription="axis" aria-label="Y-axis titled 'y' for a linear scale with values from 0.00 to 0.18"><g transform="translate(0.5,0.5)"><path class="background" aria-hidden="true" d="M0,0h0v0h0Z" pointer-events="none"/><g><g class="mark-rule role-axis-tick" pointer-events="none"><line transform="translate(0,236)" x2="-5" y2="0" stroke="#888" stroke-width="1" opacity="1"/><line transform="translate(0,210)" x2="-5" y2="0" stroke="#888" stroke-width="1" opacity="1"/><line transform="translate(0,184)" x2="-5" y2="0" stroke="#888" stroke-width="1" opacity="1"/><line transform="translate(0,157)" x2="-5" y2="0" stroke="#888" stroke-width="1" opacity="1"/><line transform="translate(0,131)" x2="-5" y2="0" stroke="#888" stroke-width="1" opacity="1"/><line transform="translate(0,105)" x2="-5" y2="0" stroke="#888" stroke-width="1" opacity="1"/><line transform="translate(0,79)" x2="-5" y2="0" stroke="#888" stroke-width="1" opacity="1"/><line transform="translate(0,52)" x2="-5" y2="0" stroke="#888" stroke-width="1" opacity="1"/><line transform="translate(0,26)" x2="-5" y2="0" stroke="#888" stroke-width="1" opacity="1"/><line transform="translate(0,0)" x2="-5" y2="0" stroke="#888" stroke-width="1" opacity="1"/></g><g class="mark-text role-axis-label" pointer-events="none"><text text-anchor="end" transform="translate(-7,239)" font-family="sans-serif" font-size="10px" fill="#000" opacity="1">0.00</text><text text-anchor="end" transform="translate(-7,212.77777777777777)" font-family="sans-serif" font-size="10px" fill="#000" opacity="1">0.02</text><text text-anchor="end" transform="translate(-7,186.55555555555557)" font-family="sans-serif" font-size="10px" fill="#000" opacity="1">0.04</text><text text-anchor="end" transform="translate(-7,160.33333333333334)" font-family="sans-serif" font-size="10px" fill="#000" opacity="1">0.06</text><text text-anchor="end" transform="translate(-7,134.11111111111111)" font-family="sans-serif" font-size="10px" fill="#000" opacity="1">0.08</text><text text-anchor="end" transform="translate(-7,107.88888888888889)" font-family="sans-serif" font-size="10px" fill="#000" opacity="1">0.10</text><text text-anchor="end" transform="translate(-7,81.66666666666667)" font-family="sans-serif" font-size="10px" fill="#000" opacity="1">0.12</text><text text-anchor="end" transform="translate(-7,55.444444444444414)" font-family="sans-serif" font-size="10px" fill="#000" opacity="1">0.14</text><text text-anchor="end" transform="translate(-7,29.222222222222207)" font-family="sans-serif" font-size="10px" fill="#000" opacity="1">0.16</text><text text-anchor="end" transform="translate(-7,3)" font-family="sans-serif" font-size="10px" fill="#000" opacity="1">0.18</text></g><g class="mark-rule role-axis-domain" pointer-events="none"><line transform="translate(0,236)" x2="0" y2="-236" stroke="#888" stroke-width="1" opacity="1"/></g><g class="mark-text role-axis-title" pointer-events="none"><text text-anchor="middle" transform="translate(-30.462890625,118) rotate(-90) translate(0,-2)" font-family="sans-serif" font-size="11px" font-weight="bold" fill="#000" opacity="1">y</text></g></g><path class="foreground" aria-hidden="true" d="" pointer-events="none" display="none"/></g></g><g class="mark-group role-scope layer_0_pathgroup" role="graphics-object" aria-roledescription="group mark container"><g transform="translate(0,0)"><path class="background" aria-hidden="true" d="M0,0h356v236h-356Z"/><g><g class="mark-line role-mark layer_0_marks" clip-path="url(#clip3)" role="graphics-object" aria-roledescription="line mark container"><path aria-label="frequency: 0; y: 0.0336907096207; name: w256_noise_16_1.4_scale^0_N2049; lineKey: Ground Truth" role="graphics-symbol" aria-roledescription="line mark" d="M0,191.82773627506361L0.3236363636363636,207.38719707727432L0.6472727272727272,153.78000460730658L0.9709090909090909,185.98096285594835L1.2945454545454544,2.1864240964253656L1.6181818181818182,10.604599343405818L1.9418181818181819,162.91981602046226L2.2654545454545456,213.81871524122025L2.589090909090909,174.52991999851332L2.912727272727273,208.29146096441482L3.2363636363636363,177.6014710234271L3.56,221.79601922796832L3.8836363636363638,134.6382496025827L4.207272727272727,206.37699094249143L4.530909090909091,139.01758332384958L4.8545454545454545,184.02513528201317L5.178181818181818,195.1323035872645L5.501818181818182,173.31064514981375L5.825454545454546,203.54926020900407L6.149090909090909,146.15757454766168L6.472727272727273,185.6739474435647L6.796363636363637,230.29215596367914L7.12,218.8725116327405L7.443636363636363,209.77464754713907L7.7672727272727276,218.1791163128283L8.090909090909092,220.55803152173758L8.414545454545454,183.71930674711862L8.738181818181818,166.43020889163017L9.061818181818182,221.89285597619082L9.385454545454545,213.15117235978443L9.709090909090909,215.50117757750883L10.032727272727273,192.9253048963017L10.356363636363636,221.41369692732889L10.68,222.71460135115518L11.003636363636364,209.89593372742337L11.327272727272726,220.4814071017835L11.650909090909092,216.233086583515L11.974545454545455,213.40666849745645L12.298181818181819,231.7842294747631L12.621818181818181,229.35345492387813L12.945454545454545,226.0878500400318L13.269090909090908,193.79073395662837L13.592727272727274,210.2600438081556L13.916363636363638,220.43644251674414L14.24,205.51574037472406L14.563636363636364,212.5307016256783L14.887272727272727,226.31813174693121L15.210909090909091,216.65949307961597L15.534545454545455,204.65532013277212L15.85818181818182,227.26803058510023L16.181818181818183,222.63421604368423L16.505454545454544,226.88996919906802L16.829090909090908,209.53675920102333L17.152727272727272,217.7001562979486L17.476363636363637,223.90377444691129L17.8,226.6116220065289L18.123636363636365,230.47676730859612L18.44727272727273,212.3134493182103L18.77090909090909,220.19895101752545L19.094545454545454,228.30821453448797L19.418181818181818,231.4394223323713L19.741818181818182,221.04392964144546L20.065454545454546,232.27741431403493L20.38909090909091,222.51511801613702L20.71272727272727,225.2558159513606L21.036363636363635,233.62606766178376L21.36,232.39576382728086L21.683636363636364,217.47325755821333L22.007272727272728,230.3260924787157L22.330909090909092,231.20135204721655L22.654545454545453,223.7719101599521L22.978181818181817,215.29924233920045L23.301818181818184,227.77243886515498L23.625454545454545,232.53073145697516L23.94909090909091,227.57905109847587L24.27272727272727,229.320696738859L24.596363636363638,218.4699440350135L24.92,232.18714477142527L25.243636363636362,214.00929699507023L25.56727272727273,224.43037074224816L25.89090909090909,233.00982853666775L26.214545454545455,214.81843973365093L26.538181818181815,223.19199351552462L26.861818181818183,224.0120684703191L27.185454545454547,226.90572524194914L27.509090909090908,229.76053192342323L27.832727272727276,225.19117997090024L28.156363636363636,230.5086054193477L28.48,222.34915908591614L28.80363636363636,229.1242654617462L29.12727272727273,230.46128844800924L29.450909090909093,226.50803519785404L29.774545454545454,234.83746761802792L30.098181818181818,233.5744673387251L30.421818181818182,231.54636890793012L30.745454545454546,227.42553423427873L31.06909090909091,224.54664077775345L31.39272727272727,230.200768839154L31.71636363636364,225.14548885077238L32.04,222.2742404970858L32.36363636363637,228.2486356045637L32.68727272727273,232.34651268521947L33.01090909090909,226.34913525813155L33.334545454545456,227.9947164754073L33.658181818181816,228.32030554364127L33.981818181818184,223.05545864585375L34.305454545454545,230.37686873392926L34.62909090909091,227.62861361271806L34.95272727272727,226.89699705234833L35.276363636363634,219.83148422257767L35.6,220.31470454153086L35.92363636363636,231.57705768901442L36.24727272727273,231.60203187478083L36.57090909090909,233.20642221574153L36.89454545454546,229.08008174929356L37.21818181818182,227.26673564314842L37.54181818181818,231.53408497013152L37.86545454545455,231.94130056082375L38.18909090909091,227.66121183791094L38.512727272727275,220.13878658579455L38.836363636363636,230.14683246157236L39.160000000000004,225.81101636050477L39.483636363636364,231.15107520855963L39.807272727272725,229.84786083052558L40.13090909090909,225.91089417702622L40.45454545454545,225.36555693960852L40.77818181818182,232.7013060218758L41.10181818181818,235.54554062569514L41.42545454545454,229.08125397397413L41.74909090909091,234.62270071688627L42.07272727272727,222.13987912734348L42.39636363636364,229.81187414336537L42.72,231.70076310903661L43.04363636363637,234.16953162921385L43.36727272727273,235.33450645120402L43.69090909090909,228.38620349723433L44.014545454545456,231.66186448145245L44.338181818181816,230.32960915275746L44.661818181818184,227.42437788347405L44.98545454545455,233.4898852226842L45.309090909090905,228.10321502760053L45.63272727272727,230.74489172506665L45.95636363636363,233.31887000509434L46.28,224.87043731908005L46.60363636363637,227.0891356671022L46.92727272727272,229.85071873871817L47.25090909090909,233.4620306916121L47.57454545454546,231.45279668333632L47.89818181818182,232.26980828535224L48.221818181818186,232.4781703065253L48.54545454545454,231.3843042668369L48.86909090909091,232.63896992181736L49.192727272727275,232.34331562556326L49.516363636363636,231.39431335611476L49.84,231.72118149242468L50.163636363636364,230.7642694537838L50.487272727272725,233.05460202466284L50.81090909090909,230.17827250435948L51.13454545454546,229.99678648139042L51.458181818181814,233.5102936848998L51.78181818181818,231.66389023222857L52.10545454545454,228.5447633696927L52.42909090909091,233.9721648618579L52.75272727272728,229.76537101343274L53.07636363636363,229.12644873021378L53.4,235.18857203382586L53.723636363636366,233.5047407283758L54.04727272727273,234.54140846162207L54.370909090909095,233.00758604643244L54.69454545454545,226.4734557908442L55.018181818181816,231.2362550370809L55.341818181818184,233.93228052763476L55.66545454545455,233.0844910066161L55.98909090909091,229.44084366328187L56.31272727272727,232.3281050945322L56.63636363636363,224.6912310289012L56.96,231.63995364846454L57.28363636363637,234.3506099683129L57.60727272727272,233.57385024180013L57.93090909090909,234.93862030520623L58.25454545454546,233.05055265997845L58.57818181818182,232.006871573627L58.901818181818186,233.21500021405518L59.22545454545454,233.66629374223865L59.54909090909091,232.16940357825823L59.872727272727275,235.4574966691693L60.196363636363635,232.535628547685L60.52,233.00718950480223L60.843636363636364,231.62328363665276L61.167272727272724,234.0279890096022L61.49090909090909,232.21779295201932L61.81454545454546,234.7821719635071L62.13818181818182,229.9799320884049L62.46181818181818,230.21629226870007L62.78545454545454,235.83017177437432L63.10909090909091,226.5375917442143L63.43272727272728,234.05653161214042L63.75636363636363,232.69387765849632L64.08,228.1391791250143L64.40363636363637,233.26585522811448L64.72727272727273,232.7366968281567L65.0509090909091,233.62634988098097L65.37454545454545,234.4523631916899L65.69818181818182,235.13558228872716L66.02181818181818,232.57006051080924L66.34545454545454,230.91067573738593L66.66909090909091,229.7455207316412L66.99272727272727,224.93463982062207L67.31636363636363,231.4529853382458L67.64,232.80114262737334L67.96363636363637,231.65040445886552L68.28727272727272,230.84436781042152L68.61090909090909,233.0029398850683L68.93454545454546,229.30401085317135L69.25818181818182,234.88106369180605L69.58181818181818,229.20828039199114L69.90545454545455,233.72358607086872L70.2290909090909,231.49654081153375L70.55272727272727,230.36661604170996L70.87636363636364,229.81921703202858L71.2,230.64218652703696L71.52363636363636,233.70987760534302L71.84727272727272,228.25376408754124L72.17090909090909,234.02671818373102L72.49454545454546,230.48776179924607L72.81818181818183,230.9570225706945L73.14181818181818,233.9584863124829L73.46545454545455,233.6591968986516L73.78909090909092,228.63285788603955L74.11272727272727,231.31981389866107L74.43636363636364,233.9825018077261L74.75999999999999,232.60248320756688L75.08363636363636,232.6727336558203L75.40727272727273,232.63075977005064L75.7309090909091,235.42846903577447L76.05454545454545,230.37459083274007L76.37818181818182,231.63864985377424L76.70181818181818,232.41436404134666L77.02545454545455,232.95890239543385L77.34909090909092,229.13798049050902L77.67272727272727,232.90021759209532L77.99636363636364,234.3624605798266L78.32000000000001,232.25129049333435L78.64363636363636,235.3720941484854L78.96727272727273,232.6854974730975L79.29090909090908,232.27325200061833L79.61454545454545,231.77580716253982L79.93818181818182,229.10316236482726L80.26181818181819,235.20011936273013L80.58545454545454,231.26008691431747L80.9090909090909,234.40527272834962L81.23272727272727,232.5227960453679L81.55636363636364,232.32110410473413L81.88000000000001,229.67996711904806L82.20363636363636,232.49788138663604L82.52727272727273,234.8181760508774L82.85090909090908,232.2785560120311L83.17454545454545,234.13287488133128L83.49818181818182,233.0325999168886L83.82181818181817,233.0915661762572L84.14545454545454,234.16683169661297L84.46909090909091,233.13828116137947L84.79272727272728,232.98590355304378L85.11636363636364,235.3778838776052L85.44,232.33435054889156L85.76363636363637,229.47167073024644L86.08727272727273,230.07955836504698L86.4109090909091,232.77434294588036L86.73454545454545,230.34808939695358L87.05818181818182,235.77445862928613L87.38181818181818,234.15922856796533L87.70545454545454,232.826810684676L88.02909090909091,233.53226740285754L88.35272727272726,233.3195977612502L88.67636363636363,233.33190795199738L89,234.1798322483276L89.32363636363637,232.26717963255942L89.64727272727274,233.96142084265335L89.9709090909091,230.16088816813297L90.29454545454546,231.12278613013524L90.61818181818181,229.58384591630764L90.94181818181818,234.96075802777585L91.26545454545455,232.21351463720202L91.5890909090909,230.1066678923865L91.91272727272727,233.19537918766338L92.23636363636363,233.07203764571912L92.56,233.87053511891926L92.88363636363637,235.1320125745713L93.20727272727274,231.70997423078452L93.5309090909091,233.6540791000136L93.85454545454544,233.38094052299857L94.17818181818181,233.31684425431823L94.50181818181818,232.83383121155202L94.82545454545455,232.96443627278012L95.14909090909092,233.43650977292822L95.47272727272727,233.5513368120624L95.79636363636364,232.5613463634832L96.12,231.93320671572454L96.44363636363637,234.90978670704902L96.76727272727271,233.72635331480868L97.09090909090908,233.33058370442853L97.41454545454545,228.82967196777463L97.73818181818181,230.93101994093095L98.06181818181818,232.35211585813926L98.38545454545455,234.00516008658127L98.70909090909092,233.37418527300989L99.03272727272727,233.963681190999L99.35636363636364,232.0715069435537L99.68,234.34223848301917L100.00363636363636,234.40441202848322L100.32727272727273,232.0469873001178L100.65090909090908,234.93779257415898L100.97454545454545,231.2743874448869L101.29818181818182,233.2487633375244L101.62181818181818,235.32602133032762L101.94545454545455,233.04372353541356L102.26909090909092,233.38593774123325L102.59272727272729,231.2945823729452L102.91636363636363,232.15291367388434L103.24,233.12584336909157L103.56363636363636,232.50079576919478L103.88727272727273,233.01298621690108L104.21090909090908,235.01984067012864L104.53454545454545,235.1992159255056L104.85818181818182,233.99382644446774L105.18181818181819,233.93041641565247L105.50545454545455,231.94247705924016L105.82909090909092,234.12411814928055L106.15272727272726,232.34886446098488L106.47636363636363,234.93100801855326L106.8,233.16220919767187L107.12363636363636,233.5671565030805L107.44727272727273,234.07135521744686L107.7709090909091,232.55530452210868L108.09454545454545,232.94937013296618L108.41818181818182,233.53716235669953L108.74181818181819,233.5023147727673L109.06545454545454,233.07584707066417L109.3890909090909,228.48895204315585L109.71272727272726,233.43500022838515L110.03636363636363,234.4422384062782L110.36,233.7498010137222L110.68363636363637,235.4170864746492L111.00727272727273,230.96241816216045L111.3309090909091,234.10673121828586L111.65454545454546,233.33950512794155L111.97818181818182,235.33533967705444L112.30181818181818,231.83904288398725L112.62545454545455,233.51265156600212L112.9490909090909,233.39563973206614L113.27272727272727,232.5461309481826L113.59636363636363,234.89894736827247L113.92,235.67203603203717L114.24363636363637,234.73649290141958L114.56727272727274,234.01755071514182L114.8909090909091,233.62157672860968L115.21454545454544,233.05807260341115L115.53818181818181,234.61386827865823L115.86181818181818,234.69543206878006L116.18545454545455,230.92389409699373L116.50909090909092,232.25777802430093L116.83272727272727,231.68340349942446L117.15636363636364,234.0934895057645L117.48,233.09089184179902L117.80363636363637,233.90995651597365L118.12727272727274,235.49265581607406L118.45090909090908,233.7632539708995L118.77454545454545,234.831606494625L119.09818181818181,233.30452185289727L119.42181818181818,234.66351443601565L119.74545454545455,234.244566982612L120.06909090909092,233.91200821443152L120.39272727272727,235.1515880398866L120.71636363636364,230.047930277884L121.04,233.27678225479193L121.36363636363636,235.5920057499057L121.68727272727273,233.54165588464176L122.01090909090908,234.58689535823132L122.33454545454545,231.6805806969189L122.65818181818182,235.16204335297354L122.98181818181818,234.0605129023186L123.30545454545455,231.8822830166254L123.62909090909092,234.3346858760342L123.95272727272729,235.123528216862L124.27636363636364,233.04300188459456L124.6,235.4025204382423L124.92363636363636,232.1320880645265L125.24727272727273,234.39618966604274L125.57090909090908,233.66160835408502L125.89454545454545,234.7128560896963L126.21818181818182,231.78922944039934L126.54181818181819,234.70684324867196L126.86545454545455,233.9764134131579L127.18909090909092,233.77304952602006L127.51272727272726,233.2107594470597L127.83636363636363,232.91397016867995L128.16,234.51742242462933L128.48363636363635,233.64572074119414L128.80727272727273,233.49240565838085L129.13090909090909,233.6231531265916L129.45454545454547,232.69820298440754L129.77818181818182,233.933638201923L130.1018181818182,233.06351978497372L130.42545454545456,234.36968273545307L130.7490909090909,234.95578172031998L131.07272727272726,233.45436834119673L131.39636363636365,234.7696049670275L131.72,235.2387190577574L132.04363636363635,234.14624327959285L132.36727272727273,235.49833274909503L132.6909090909091,232.6574849664337L133.01454545454547,233.98059831632094L133.33818181818182,235.15744985013993L133.66181818181818,231.41260982967086L133.98545454545453,233.106450682299L134.3090909090909,232.75544570717548L134.63272727272727,234.7354470572124L134.95636363636365,233.98451672152925L135.28,231.96822418065534L135.60363636363635,232.45391532944308L135.92727272727274,233.10776088759303L136.2509090909091,232.22056080649298L136.57454545454544,232.16844534563523L136.8981818181818,235.09891325385414L137.22181818181818,234.29606305704348L137.54545454545453,233.59368571814977L137.86909090909091,234.97933916266385L138.19272727272727,234.07969327602123L138.51636363636365,234.88189836767398L138.84,233.86493179336603L139.16363636363636,234.02969575652645L139.48727272727274,235.32789780561708L139.8109090909091,230.33313742693926L140.13454545454545,235.39220100705924L140.4581818181818,233.64052632057832L140.78181818181818,234.89793899557034L141.10545454545453,233.71450514542974L141.42909090909092,234.67566481957004L141.75272727272727,235.12630919780995L142.07636363636365,234.79439187158522L142.4,231.75262000887759L142.72363636363636,235.40366217439686L143.0472727272727,233.9386363359582L143.3709090909091,233.56450052890514L143.69454545454545,233.589583389668L144.01818181818183,234.5220504226163L144.34181818181818,233.02484766538774L144.66545454545454,234.8158923496182L144.98909090909092,233.35179303420915L145.31272727272727,233.69753597211093L145.63636363636365,234.8906429653677L145.95999999999998,232.3367722307642L146.28363636363636,232.6423980684744L146.60727272727271,233.3120518701358L146.9309090909091,235.15087852342467L147.25454545454545,231.34139076972173L147.57818181818183,235.13424506731744L147.9018181818182,235.24201861075645L148.22545454545454,235.01867935873776L148.54909090909092,233.46707339460653L148.87272727272727,232.67353589708608L149.19636363636363,234.71315479330306L149.51999999999998,233.9229833206369L149.84363636363636,233.16840733567045L150.16727272727272,234.3182292457463L150.4909090909091,235.38235825005296L150.81454545454545,234.0038730815674L151.13818181818183,233.8940814190234L151.4618181818182,235.39255042312044L151.78545454545454,235.37688038917258L152.1090909090909,234.72850238914705L152.43272727272728,233.23497321311797L152.75636363636363,232.86599595782656L153.07999999999998,233.49598857532774L153.40363636363637,235.51411668573402L153.72727272727272,232.17048544395303L154.0509090909091,232.92026812893647L154.37454545454545,233.7258723668961L154.69818181818184,233.85462186361354L155.02181818181816,234.0216148852681L155.34545454545454,233.39359841268097L155.6690909090909,233.01983518381084L155.99272727272728,234.7426494468107L156.31636363636363,235.2257440721409L156.64000000000001,234.29197767087155L156.96363636363637,233.3546610162076L157.28727272727272,234.24233456618256L157.6109090909091,233.39391253226333L157.93454545454546,235.0868438423301L158.2581818181818,235.03363071821838L158.58181818181816,233.1794253318674L158.90545454545455,233.45036186650395L159.2290909090909,234.02301117581212L159.55272727272728,234.12754049586755L159.87636363636364,234.55689556441374L160.20000000000002,234.38793143474805L160.52363636363637,233.69251830099773L160.84727272727272,234.21334749511962L161.17090909090908,234.4810746067928L161.49454545454546,234.57186157670284L161.8181818181818,233.53114127347038L162.14181818181817,232.7127617707269L162.46545454545455,233.79373654423074L162.7890909090909,232.88482359569107L163.11272727272728,232.6413342135234L163.43636363636364,234.5640009554724L163.76000000000002,235.3607225769665L164.08363636363637,234.6085001612082L164.40727272727273,234.79134233213134L164.73090909090908,234.18847786324721L165.05454545454546,231.70135990571643L165.37818181818182,234.94600020747424L165.70181818181817,234.749309224594L166.02545454545455,232.63162123308413L166.3490909090909,235.29402867823632L166.6727272727273,232.6357838517676L166.99636363636364,235.05992304621677L167.32,234.62802441801048L167.64363636363635,233.76285926087036L167.96727272727273,234.63270278502668L168.29090909090908,234.52015379971516L168.61454545454546,234.82980992293193L168.93818181818182,233.9320833252536L169.26181818181817,235.5169892085768L169.58545454545455,235.34617542894557L169.9090909090909,232.7972684858574L170.2327272727273,233.87201276307718L170.55636363636364,235.6612621348403L170.88,235.22618709064812L171.20363636363635,235.12970162824624L171.52727272727273,231.90702672592468L171.85090909090908,234.71614610310644L172.17454545454547,233.20317295545505L172.49818181818182,234.04392027565174L172.8218181818182,234.58196285656757L173.14545454545456,232.69762877747416L173.4690909090909,235.1713460547746L173.79272727272726,233.75612797432888L174.11636363636364,235.59689009572483L174.44,234.7624597386457L174.76363636363635,235.40400174560233L175.08727272727273,234.98380185865489L175.4109090909091,232.5634603363772L175.73454545454547,235.79430847225657L176.05818181818182,234.51927508910495L176.3818181818182,233.40312518034543L176.70545454545453,231.52996234140463L177.0290909090909,235.19257591375046L177.35272727272726,234.15388227709465L177.67636363636365,235.31249495647435L178,235.20319088139675L178.32363636363635,234.4367251344439L178.64727272727274,234.24004521748674L178.9709090909091,234.5499148748608L179.29454545454547,233.76935656037594L179.6181818181818,235.24500953897626L179.9418181818182,235.25690525366616L180.26545454545453,233.16300289146602L180.5890909090909,234.98780398329512L180.91272727272727,232.81868692342604L181.23636363636362,233.7906475490373L181.56,234.14464642873241L181.88363636363636,233.6638056648274L182.20727272727274,233.3849230342441L182.5309090909091,232.9820813068913L182.85454545454547,235.390123933295L183.1781818181818,235.1611314445941L183.5018181818182,235.29375508282746L183.82545454545453,234.02901928520038L184.1490909090909,233.23910744198494L184.47272727272727,233.16303463921778L184.79636363636362,235.04230418873743L185.12,233.8512479018213L185.44363636363636,234.69936909526587L185.76727272727274,233.94683000331537L186.0909090909091,232.9063000339601L186.41454545454548,234.32637910731137L186.73818181818183,235.50903819020215L187.0618181818182,234.56284521520138L187.38545454545454,234.41773539988532L187.7090909090909,235.35933739050395L188.03272727272727,234.03944857428885L188.35636363636362,233.26518364105786L188.68,234.83079547693745L189.00363636363636,234.1171173121159L189.32727272727274,235.12238751098306L189.6509090909091,235.27083221393534L189.97454545454548,235.67603281450766L190.29818181818183,234.73557687193778L190.62181818181816,234.59612113278772L190.94545454545454,234.51584327924584L191.2690909090909,235.03271232291848L191.59272727272727,235.28444436777175L191.91636363636363,235.1441504421851L192.24,235.20870590851538L192.56363636363636,235.17004615223658L192.88727272727274,233.39597033605807L193.2109090909091,233.36258055393893L193.53454545454542,232.96552760174706L193.85818181818183,234.76866993468462L194.18181818181816,234.32869364052183L194.50545454545454,235.4851591873966L194.8290909090909,233.60006610045417L195.15272727272728,234.9422393962741L195.47636363636363,234.47366761209236L195.8,233.56662152293657L196.12363636363636,235.40760877862985L196.44727272727272,234.10952837837652L196.7709090909091,234.68994657622858L197.09454545454543,235.0409687989288L197.41818181818184,233.35511769540608L197.74181818181816,233.90578596035226L198.06545454545454,232.37432005256414L198.3890909090909,234.61344029454307L198.71272727272728,234.16805474822306L199.03636363636363,234.29036097766624L199.36,233.4420799770289L199.68363636363637,234.69733784968656L200.00727272727272,234.97405300936143L200.3309090909091,234.19420253237087L200.65454545454546,235.57824256529824L200.97818181818184,234.60445293339177L201.30181818181816,235.49161974040584L201.62545454545455,234.91083018543821L201.9490909090909,235.43349010298132L202.27272727272728,235.3580379458662L202.59636363636363,234.63301034137194L202.92,234.84842433190596L203.24363636363637,233.3598285733412L203.56727272727272,235.4539750726997L203.8909090909091,234.38249081642263L204.21454545454546,235.80261411530793L204.53818181818184,234.83712129279348L204.86181818181817,234.74670331418102L205.18545454545458,234.01043326604284L205.5090909090909,234.44288435091988L205.83272727272725,234.50839141031935L206.15636363636364,234.21115140544458L206.48,235.40295174213435L206.80363636363637,233.94000652618706L207.12727272727273,234.05204663166984L207.4509090909091,234.04522956514523L207.77454545454546,235.03372924309224L208.09818181818184,234.86492148636736L208.42181818181817,234.72442532149662L208.74545454545452,234.7498204702408L209.0690909090909,235.46878478836476L209.39272727272726,234.75775130284538L209.71636363636364,234.4147711061976L210.04,233.8876038092292L210.36363636363637,235.73360556889222L210.68727272727273,234.27912593674327L211.0109090909091,234.86991603351717L211.33454545454546,235.10577290510346L211.65818181818184,235.90905984337184L211.98181818181817,235.45580972643157L212.30545454545452,235.598589210978L212.6290909090909,235.5962924214028L212.95272727272726,234.80535675135133L213.27636363636364,234.22776082178785L213.6,235.11443294388138L213.92363636363638,234.69009340958047L214.24727272727273,234.41695757996703L214.5709090909091,234.8438007602882L214.89454545454547,234.92879536815195L215.2181818181818,235.08232894570875L215.5418181818182,233.81421567572073L215.86545454545453,234.65821744574026L216.1890909090909,235.2132549950232L216.51272727272726,233.2599409882807L216.83636363636364,232.8416787063082L217.16,233.12427399224705L217.48363636363638,235.14824376529495L217.80727272727273,235.44632500927483L218.13090909090909,233.76051145357388L218.45454545454547,234.33991570760392L218.7781818181818,235.08579380070378L219.1018181818182,235.04091896411654L219.42545454545453,234.8361068910712L219.7490909090909,233.95451982774668L220.07272727272726,234.73709275076789L220.39636363636365,235.04567868474663L220.72,235.18039263769361L221.04363636363635,233.98549922286637L221.36727272727273,235.2673942224226L221.6909090909091,234.54744190815836L222.01454545454547,234.6995334814613L222.3381818181818,234.87076002002385L222.6618181818182,235.46963552890037L222.98545454545453,234.06410940364003L223.3090909090909,234.17045521405007L223.63272727272727,234.96580981245887L223.95636363636365,234.08484862248105L224.28,234.60462113542275L224.60363636363635,234.39615349192172L224.92727272727274,234.75264075429487L225.2509090909091,233.9534643676339L225.57454545454547,234.5466982781266L225.8981818181818,233.92797489143496L226.2218181818182,234.79146092830018L226.54545454545453,233.56762172975058L226.86909090909091,234.53434290788655L227.19272727272727,234.9166278896543L227.51636363636362,234.9393574483175L227.84,234.6802885438212L228.16363636363636,235.62615427276532L228.48727272727274,234.59238756665337L228.8109090909091,235.37809756439592L229.13454545454547,235.40396400698873L229.4581818181818,235.0204207534488L229.7818181818182,235.07991932187642L230.10545454545453,234.7801512496339L230.4290909090909,234.38474521206484L230.75272727272727,233.05914897430276L231.07636363636362,234.88369860256918L231.4,235.29346935306157L231.72363636363636,234.3585821645748L232.04727272727274,234.43296699432864L232.3709090909091,234.95871861630843L232.69454545454548,235.0504338263741L233.01818181818183,234.55364370935905L233.34181818181816,235.28326336666942L233.66545454545454,234.98512190880462L233.9890909090909,234.99603184053882L234.31272727272727,235.09023703593348L234.63636363636363,234.11361620668322L234.96,233.87918500757468L235.28363636363636,235.3316953251552L235.60727272727274,234.20021934186417L235.9309090909091,234.09696496878232L236.25454545454548,235.18324581425014L236.57818181818183,235.22666101742328L236.90181818181816,234.00321233148378L237.22545454545454,232.97483488255077L237.5490909090909,234.45897633996273L237.87272727272727,233.6454957595302L238.19636363636363,234.36897787431047L238.52,235.2734227083727L238.84363636363636,235.7472913874339L239.16727272727275,235.0868114077279L239.4909090909091,235.79663928000565L239.81454545454542,234.72537203029626L240.13818181818183,234.51246702795225L240.46181818181816,235.3397458986793L240.78545454545454,234.81409951744394L241.1090909090909,234.68954225029384L241.43272727272728,235.4812172384829L241.75636363636363,234.60218937974423L242.08,233.27967435287104L242.40363636363637,235.03500724273425L242.72727272727272,234.71998239153373L243.0509090909091,234.2628578087315L243.37454545454545,233.81515391336546L243.69818181818184,235.38487380148015L244.02181818181816,234.97320360436828L244.34545454545454,235.79921166830334L244.6690909090909,234.738449661889L244.99272727272728,233.10363062719506L245.31636363636363,235.326048956977L245.64,235.29310745921813L245.96363636363637,234.06387663767154L246.28727272727272,235.91686043196952L246.6109090909091,234.81915206529408L246.93454545454546,234.1395585462451L247.25818181818184,234.42464374119623L247.58181818181816,234.66453250094008L247.90545454545457,235.65010417379543L248.2290909090909,235.51387918812947L248.55272727272728,234.4356989799481L248.87636363636364,235.5737325911048L249.2,234.74482889944275L249.52363636363637,235.4977341589725L249.84727272727272,233.17299671740167L250.1709090909091,235.00606290902942L250.49454545454546,234.20848779959812L250.81818181818184,234.9192083102858L251.14181818181817,234.07193079808104L251.46545454545458,233.57440277478761L251.7890909090909,235.04577537801944L252.11272727272726,235.3391067462249L252.43636363636364,235.4960386687631L252.76,234.05459805195116L253.08363636363637,235.56895791239933L253.40727272727273,233.5347586855706L253.7309090909091,235.1150985019178L254.05454545454546,235.5919073395069L254.37818181818184,233.16755014637278L254.70181818181817,235.4911873680798L255.02545454545452,234.46404376957153L255.3490909090909,234.43691073668498L255.67272727272726,234.15329769108857L255.99636363636364,234.86271242285147L256.32,235.30353300878778L256.6436363636364,233.77541168085818L256.9672727272727,234.57007927623474L257.2909090909091,235.8012718569953L257.61454545454546,234.8913740794588L257.9381818181818,234.69563095012887L258.26181818181817,234.86582309199085L258.5854545454545,232.53331065653927L258.90909090909093,234.75118173141445L259.2327272727273,234.63766184490586L259.55636363636364,233.3769277903355L259.88,234.77177121686853L260.2036363636364,233.60132822622026L260.5272727272727,234.98905626420554L260.8509090909091,235.73566774181865L261.17454545454547,234.68952362901635L261.4981818181818,235.36043604587513L261.8218181818182,233.77520654153906L262.1454545454545,233.91278343958157L262.46909090909094,235.26868092216964L262.7927272727273,234.73123719848485L263.11636363636364,235.03199693006982L263.44,233.6761143292404L263.7636363636364,235.48684292483247L264.0872727272727,235.27384374766714L264.41090909090906,234.9000426657084L264.73454545454547,235.08176282834674L265.0581818181818,235.08543343319454L265.3818181818182,234.65306515194888L265.70545454545453,234.44196595562L266.02909090909094,235.34961487047582L266.3527272727273,234.6048459644533L266.67636363636365,234.43983839835144L267,235.0504429080627L267.32363636363635,233.95727821894818L267.6472727272727,235.64778746555868L267.97090909090906,235.23321150967644L268.29454545454547,233.6151322402681L268.6181818181818,234.60280815563684L268.9418181818182,234.52397345109947L269.26545454545453,235.08618156591223L269.58909090909094,234.7344743244143L269.9127272727273,235.14924069049044L270.2363636363636,234.21842942490346L270.56,235.09722306765616L270.88363636363636,234.03542195198435L271.2072727272727,234.07321490305995L271.53090909090906,233.72239095117484L271.8545454545455,233.87329900492395L272.1781818181818,235.2864116599473L272.5018181818182,234.8619505531258L272.82545454545453,235.07721511553973L273.1490909090909,234.67060807430082L273.4727272727273,234.07929093432094L273.7963636363636,234.96901122216758L274.12,233.06862995194064L274.44363636363636,234.70617715641856L274.7672727272727,233.98231559495133L275.09090909090907,235.35497894314014L275.4145454545455,235.46248877418435L275.73818181818183,234.4297548239637L276.0618181818182,234.0510806147423L276.38545454545454,234.6276805349108L276.7090909090909,234.85348313772639L277.0327272727273,234.35507770120685L277.3563636363636,234.95578912304092L277.68,235.19698480646022L278.00363636363636,234.04729194794263L278.3272727272727,235.5036297393704L278.65090909090907,235.07618048988905L278.9745454545455,235.02854626998305L279.29818181818183,235.49919737927203L279.6218181818182,234.48754260068137L279.94545454545454,234.17830240353942L280.2690909090909,233.55418663068366L280.5927272727273,235.10824564285576L280.9163636363636,233.62969499505644L281.24,235.29494508930173L281.56363636363636,233.50669687831152L281.8872727272727,235.53911327045515L282.21090909090907,233.9655529346524L282.5345454545454,234.21653982313973L282.85818181818183,234.82096321347893L283.1818181818182,232.65150356789428L283.50545454545454,234.8666766944031L283.8290909090909,234.8828401158874L284.1527272727273,233.93521994207467L284.47636363636366,234.16488760471756L284.8,234.47675355461735L285.12363636363636,234.76004790162875L285.4472727272727,234.2818246482768L285.7709090909091,235.14722310560236L286.0945454545454,235.62535870921175L286.41818181818184,234.86765118248553L286.7418181818182,235.13266637983423L287.06545454545454,235.01673702212673L287.3890909090909,235.05927664367482L287.7127272727273,235.6642449734888L288.03636363636366,235.3217594236032L288.36,234.86412573202205L288.68363636363637,234.35003728771375L289.0072727272727,235.32492366707365L289.3309090909091,235.0974208042543L289.6545454545454,234.68385528162534L289.97818181818184,235.6357272501983L290.3018181818182,235.30821534427295L290.62545454545455,234.54009901949513L290.9490909090909,235.20242084578302L291.2727272727273,234.8994320557039L291.59636363636366,233.5118679460138L291.91999999999996,235.79125609000522L292.24363636363637,235.20794426773983L292.5672727272727,235.08419778932713L292.8909090909091,234.65077412428542L293.21454545454543,234.39845291442342L293.53818181818184,234.36656611361022L293.8618181818182,234.9533250853937L294.18545454545455,234.28539840721834L294.5090909090909,235.16759234102855L294.83272727272725,233.82363651579038L295.15636363636366,235.1559844166558L295.47999999999996,234.64255557768047L295.8036363636364,235.68863371468615L296.1272727272727,233.97639143394514L296.4509090909091,235.37357240317698L296.77454545454543,234.70208673334372L297.09818181818184,235.27754129231388L297.4218181818182,233.9091031425115L297.74545454545455,234.98402722190238L298.0690909090909,235.46369793615304L298.39272727272726,235.36866470444429L298.71636363636367,234.67833483602024L299.03999999999996,234.32593067031766L299.3636363636364,234.6317126520185L299.6872727272727,235.4530321797356L300.0109090909091,235.31546756868354L300.33454545454543,235.0885205204702L300.65818181818184,235.84780794620747L300.9818181818182,234.9490886684507L301.30545454545455,235.42642447292909L301.6290909090909,234.43323776601918L301.95272727272726,234.77084236617924L302.27636363636367,234.81145293022402L302.59999999999997,234.81519679911435L302.9236363636364,234.4796178734137L303.24727272727273,234.4750703132401L303.5709090909091,234.12208095099777L303.89454545454544,234.55056326163725L304.2181818181818,235.1937727887287L304.5418181818182,234.43229525463863L304.86545454545455,233.70394489686524L305.1890909090909,233.6650390955102L305.51272727272726,234.09593072471517L305.83636363636367,234.6390923253364L306.15999999999997,233.9048669545187L306.4836363636364,235.79803543699543L306.80727272727273,233.53373039420694L307.1309090909091,234.146615552509L307.45454545454544,234.38282187831484L307.7781818181818,234.46297060398177L308.1018181818182,235.25090607333306L308.42545454545456,234.8128644077935L308.7490909090909,234.83302545123215L309.07272727272726,235.09350644383167L309.3963636363637,234.43458261909998L309.71999999999997,234.57016826151974L310.0436363636363,234.10205422497046L310.36727272727273,235.14706016942446L310.6909090909091,234.9752472132548L311.01454545454544,234.78027053265313L311.3381818181818,234.92016516920802L311.6618181818182,233.960348898131L311.98545454545456,233.9842609079141L312.3090909090909,235.03603912098333L312.63272727272727,234.36782946044372L312.9563636363637,233.36515517450042L313.28000000000003,235.19696687203313L313.6036363636363,235.06191758345813L313.92727272727274,235.26258214852876L314.2509090909091,234.3774459765603L314.57454545454544,235.32172454686628L314.8981818181818,234.9984626041001L315.2218181818182,234.97173710245016L315.54545454545456,234.36206602243084L315.8690909090909,234.43918329570442L316.19272727272727,234.98227834815367L316.5163636363636,234.24633569870556L316.84000000000003,234.30758764356787L317.16363636363633,233.99888944770728L317.48727272727274,234.67791631517724L317.8109090909091,234.96537381508907L318.13454545454545,234.57774956358804L318.4581818181818,234.0439463759669L318.7818181818182,234.15655595674698L319.10545454545456,234.5528678736753L319.4290909090909,235.15136366875635L319.75272727272727,234.1422629052152L320.0763636363636,235.54867422800615L320.40000000000003,234.37266977152063L320.72363636363633,233.38102294504642L321.04727272727274,234.5673338588741L321.3709090909091,235.33994447476127L321.69454545454545,232.476279788961L322.0181818181818,234.09272847552265L322.34181818181816,235.29297520235804L322.66545454545457,235.50386971726806L322.9890909090909,235.56374422181398L323.3127272727273,235.21731557826408L323.6363636363636,234.94089362739277L323.96000000000004,235.16010193216306L324.28363636363633,235.11726353069145L324.60727272727274,234.69730091239845L324.9309090909091,234.9226405017285L325.25454545454545,235.26695654608517L325.5781818181818,234.20979953122634L325.90181818181816,233.59554326689494L326.22545454545457,235.30399846440804L326.5490909090909,235.3255186321524L326.8727272727273,234.18877504051972L327.1963636363636,234.68074568091996L327.52000000000004,232.86130186956788L327.84363636363634,234.49041745118384L328.16727272727275,235.37541365830435L328.4909090909091,234.65693853029774L328.81454545454545,234.85258954535757L329.1381818181818,235.03525359307724L329.46181818181816,234.6009773177405L329.78545454545457,234.53889062069356L330.1090909090909,233.45484974700958L330.4327272727273,234.9250298253157L330.75636363636363,234.52342778661597L331.08000000000004,234.83930646917887" stroke="rgb(83, 135, 221)" stroke-width="2" stroke-dasharray="1,0"/></g></g><path class="foreground" aria-hidden="true" d="" display="none"/></g><g transform="translate(0,0)"><path class="background" aria-hidden="true" d="M0,0h356v236h-356Z"/><g><g class="mark-line role-mark layer_0_marks" clip-path="url(#clip4)" role="graphics-object" aria-roledescription="line mark container"><path aria-label="frequency: 0; y: 0.0336086787283; name: w256_noise_16_1.4_scale^0_N2049; lineKey: Prediction" role="graphics-symbol" aria-roledescription="line mark" d="M0,191.93528788950707L0.3236363636363636,207.36087574892574L0.6472727272727272,153.8878785835372L0.9709090909090909,186.0018333395322L1.2945454545454544,2.280006700091886L1.6181818181818182,10.6359172794554L1.9418181818181819,163.01346700390178L2.2654545454545456,213.91345785889362L2.589090909090909,174.4486066798369L2.912727272727273,208.30512959261733L3.2363636363636363,177.5578007698059L3.56,221.89063729676937L3.8836363636363638,134.66849299934174L4.207272727272727,206.48210286431842L4.530909090909091,139.10692638158798L4.8545454545454545,184.12291835745174L5.178181818181818,195.06260017719532L5.501818181818182,173.2437795003255L5.825454545454546,203.62929873334036L6.149090909090909,146.2222618129518L6.472727272727273,185.58087280392647L6.796363636363637,230.22549423244263L7.12,218.9630073780815L7.443636363636363,209.8679102311532L7.7672727272727276,218.080368594163L8.090909090909092,220.52187937994796L8.414545454545454,183.68321687976518L8.738181818181818,166.48948438631163L9.061818181818182,221.99236075662904L9.385454545454545,213.2287589808305L9.709090909090909,215.59750147743358L10.032727272727273,192.8626006444295L10.356363636363636,221.37212446745897L10.68,222.72746773809195L11.003636363636364,209.88835822542507L11.327272727272726,220.46085653785204L11.650909090909092,216.15645239502192L11.974545454545455,213.36013361977206L12.298181818181819,231.82166923210025L12.621818181818181,229.27654782682657L12.945454545454545,226.13692534839112L13.269090909090908,193.88811163769827L13.592727272727274,210.34157203469013L13.916363636363638,220.33328796592022L14.24,205.57686700754695L14.563636363636364,212.61626670095657L14.887272727272727,226.24364968968763L15.210909090909091,216.7315458233158L15.534545454545455,204.73700709806548L15.85818181818182,227.17688584244914L16.181818181818183,222.58961289458804L16.505454545454544,226.90744877854985L16.829090909090908,209.50463536050583L17.152727272727272,217.75549873461324L17.476363636363637,223.96246138711768L17.8,226.69726095638342L18.123636363636365,230.45296504224342L18.44727272727273,212.37101776070065L18.77090909090909,220.10890340391134L19.094545454545454,228.3725440270371L19.418181818181818,231.53170938355225L19.741818181818182,221.10107193142176L20.065454545454546,232.2972181952662L20.38909090909091,222.59510769777827L20.71272727272727,225.3510775226686L21.036363636363635,233.58793510134436L21.36,232.40028330290482L21.683636363636364,217.41114063974882L22.007272727272728,230.28225493886404L22.330909090909092,231.2207893029683L22.654545454545453,223.78285702897443L22.978181818181817,215.36690168248282L23.301818181818184,227.75486648455262L23.625454545454545,232.47190195715262L23.94909090909091,227.51016702461575L24.27272727272727,229.4106375090778L24.596363636363638,218.52394818183447L24.92,232.1731360759586L25.243636363636362,213.94893475042448L25.56727272727273,224.39221116569306L25.89090909090909,232.983521250594L26.214545454545455,214.7394659800662L26.538181818181815,223.27298080921173L26.861818181818183,224.01835940943823L27.185454545454547,226.82214012742043L27.509090909090908,229.72914988133644L27.832727272727276,225.10281743026442L28.156363636363636,230.52123491921358L28.48,222.43027337061034L28.80363636363636,229.05090251275234L29.12727272727273,230.53479670402075L29.450909090909093,226.54814665060903L29.774545454545454,234.7513271910656L30.098181818181818,233.6425320763762L30.421818181818182,231.6222344345103L30.745454545454546,227.4941606629226L31.06909090909091,224.47230585912865L31.39272727272727,230.17937634926702L31.71636363636364,225.1699712516533L32.04,222.34969025022454L32.36363636363637,228.20163733181025L32.68727272727273,232.42573919975095L33.01090909090909,226.40614628336496L33.334545454545456,227.91388059407473L33.658181818181816,228.3908490480648L33.981818181818184,223.13942656500473L34.305454545454545,230.34116350279913L34.62909090909091,227.67149994108414L34.95272727272727,226.8587141479883L35.276363636363634,219.83967514253325L35.6,220.28128270639314L35.92363636363636,231.65017703506683L36.24727272727273,231.60591822697057L36.57090909090909,233.11868333526783L36.89454545454546,229.04408834626275L37.21818181818182,227.267706391712L37.54181818181818,231.55667410604656L37.86545454545455,231.85828660055995L38.18909090909091,227.73467369336223L38.512727272727275,220.09543258862362L38.836363636363636,230.06463753225074L39.160000000000004,225.73126539753542L39.483636363636364,231.22661715228523L39.807272727272725,229.8530705144836L40.13090909090909,225.99427171010112L40.45454545454545,225.42640761120452L40.77818181818182,232.78688269729417L41.10181818181818,235.48713437835167L41.42545454545454,229.04350162338878L41.74909090909091,234.55869511245854L42.07272727272727,222.2145009968016L42.39636363636364,229.8021404047807L42.72,231.7482943776995L43.04363636363637,234.23595632074608L43.36727272727273,235.40714824543747L43.69090909090909,228.3453862675362L44.014545454545456,231.73699065173668L44.338181818181816,230.2464904859662L44.661818181818184,227.35468179980916L44.98545454545455,233.44443984236568L45.309090909090905,228.175845336169L45.63272727272727,230.81510248863034L45.95636363636363,233.36683750007714L46.28,224.9555579258336L46.60363636363637,227.12491904654436L46.92727272727272,229.88265087165766L47.25090909090909,233.41572690092855L47.57454545454546,231.48412652479277L47.89818181818182,232.19399984367192L48.221818181818186,232.41204584493406L48.54545454545454,231.34663586463367L48.86909090909091,232.63246468537383L49.192727272727275,232.4042084239837L49.516363636363636,231.4618640244007L49.84,231.6690428312868L50.163636363636364,230.82496260768838L50.487272727272725,232.9784996110118L50.81090909090909,230.23797537262243L51.13454545454546,230.0739243601759L51.458181818181814,233.4584822698186L51.78181818181818,231.60153764776058L52.10545454545454,228.48261226134167L52.42909090909091,234.05180821826474L52.75272727272728,229.68886015274458L53.07636363636363,229.19134540855885L53.4,235.1470980225131L53.723636363636366,233.50752583042615L54.04727272727273,234.60382988376335L54.370909090909095,232.95740017729503L54.69454545454545,226.5108802848392L55.018181818181816,231.30931760350035L55.341818181818184,233.97576792641647L55.66545454545455,233.15874930326308L55.98909090909091,229.4747111880117L56.31272727272727,232.28781078693765L56.63636363636363,224.60663059684967L56.96,231.59482513513004L57.28363636363637,234.40480536481158L57.60727272727272,233.5831244011513L57.93090909090909,234.864327208139L58.25454545454546,233.120609263786L58.57818181818182,232.07547144405544L58.901818181818186,233.2680006434934L59.22545454545454,233.58670075486106L59.54909090909091,232.2409346209218L59.872727272727275,235.53647297936388L60.196363636363635,232.62170341859263L60.52,232.97197483749025L60.843636363636364,231.6254971265379L61.167272727272724,233.9942440495102L61.49090909090909,232.2768517072416L61.81454545454546,234.75938524362735L62.13818181818182,229.89102556225325L62.46181818181818,230.15619804834324L62.78545454545454,235.7534974814496L63.10909090909091,226.52289375621413L63.43272727272728,233.9813830047432L63.75636363636363,232.66236038319767L64.08,228.1494586807158L64.40363636363637,233.195243038651L64.72727272727273,232.80474263926345L65.0509090909091,233.61298255115335L65.37454545454545,234.52632141102933L65.69818181818182,235.054763731288L66.02181818181818,232.6494466799001L66.34545454545454,230.87579136879907L66.66909090909091,229.8285362182392L66.99272727272727,225.02963275710744L67.31636363636363,231.49571048571832L67.64,232.84315650309955L67.96363636363637,231.63861169541877L68.28727272727272,230.8113055796259L68.61090909090909,232.92739030967158L68.93454545454546,229.25834659652577L69.25818181818182,234.797591144426L69.58181818181818,229.13555728230213L69.90545454545455,233.80576237891282L70.2290909090909,231.57496508479946L70.55272727272727,230.31986686670118L70.87636363636364,229.74228368202847L71.2,230.59492389319672L71.52363636363636,233.6829106376196L71.84727272727272,228.32833223003482L72.17090909090909,234.0560335692846L72.49454545454546,230.5769595499668L72.81818181818183,231.030655986112L73.14181818181818,233.96849814916237L73.46545454545455,233.74213515273814L73.78909090909092,228.64234435848064L74.11272727272727,231.33611667445965L74.43636363636364,234.03984526855248L74.75999999999999,232.6602091677487L75.08363636363636,232.68369761978585L75.40727272727273,232.68782360644803L75.7309090909091,235.50094518458678L76.05454545454545,230.46410300831002L76.37818181818182,231.7138154034813L76.70181818181818,232.37189226535457L77.02545454545455,232.94450692687596L77.34909090909092,229.08853641980224L77.67272727272727,232.94953864026402L77.99636363636364,234.43052852277953L78.32000000000001,232.31496488323643L78.64363636363636,235.43428070594865L78.96727272727273,232.61201363843347L79.29090909090908,232.3177440325833L79.61454545454545,231.68962056396737L79.93818181818182,229.0540076870885L80.26181818181819,235.1040431868492L80.58545454545454,231.33359120186006L80.9090909090909,234.43169448948984L81.23272727272727,232.52403756562208L81.55636363636364,232.4045524597168L81.88000000000001,229.69579581543803L82.20363636363636,232.49827701246573L82.52727272727273,234.85837770998478L82.85090909090908,232.34783876438934L83.17454545454545,234.1074782062529L83.49818181818182,233.10427107703353L83.82181818181817,233.0673285993851L84.14545454545454,234.07485800184722L84.46909090909091,233.11439922038053L84.79272727272728,232.94015107428032L85.11636363636364,235.2998936937915L85.44,232.4162048004154L85.76363636363637,229.53360570967197L86.08727272727273,230.0247586928308L86.4109090909091,232.85743658079042L86.73454545454545,230.26840070842042L87.05818181818182,235.84525983616348L87.38181818181818,234.21925410328225L87.70545454545454,232.9194060553693L88.02909090909091,233.61048592627048L88.35272727272726,233.24082548378243L88.67636363636363,233.24259847361182L89,234.268484029298L89.32363636363637,232.3282986337112L89.64727272727274,233.92620235950582L89.9709090909091,230.06950470680994L90.29454545454546,231.2113220623384L90.61818181818181,229.61889543425704L90.94181818181818,234.88825341283035L91.26545454545455,232.30073364824057L91.5890909090909,230.18505919683312L91.91272727272727,233.28583524831467L92.23636363636363,233.13213766614598L92.56,233.78810650782867L92.88363636363637,235.0655853645876L93.20727272727274,231.7431765790615L93.5309090909091,233.70684447398202L93.85454545454544,233.43434756787286L94.17818181818181,233.3906067976107L94.50181818181818,232.78591805406742L94.82545454545455,233.00472935930722L95.14909090909092,233.43434787313973L95.47272727272727,233.50982861086314L95.79636363636364,232.57727335579693L96.12,231.91114569144946L96.44363636363637,234.98701822643892L96.76727272727271,233.70405830349773L97.09090909090908,233.348124642546L97.41454545454545,228.92113296687603L97.73818181818181,230.85406552751857L98.06181818181818,232.4411655544407L98.38545454545455,233.9423981392756L98.70909090909092,233.33820194378495L99.03272727272727,234.01514918088085L99.35636363636364,231.9943855491777L99.68,234.41167844780202L100.00363636363636,234.48757785900187L100.32727272727273,232.13459155791335L100.65090909090908,235.01248953926068L100.97454545454545,231.29382683750654L101.29818181818182,233.17749146641128L101.62181818181818,235.40331023988418L101.94545454545455,233.06452533395753L102.26909090909092,233.30721583279472L102.59272727272729,231.31933554551668L102.91636363636363,232.13844585708446L103.24,233.0464654422055L103.56363636363636,232.54907066788937L103.88727272727273,233.031787601817L104.21090909090908,235.0093279668751L104.53454545454545,235.19308250407792L104.85818181818182,234.04311605015147L105.18181818181819,233.8691591286204L105.50545454545455,231.92038672934805L105.82909090909092,234.21023942074842L106.15272727272726,232.35634471972782L106.47636363636363,234.99223210781605L106.8,233.1709364714722L107.12363636363636,233.6449826059656L107.44727272727273,234.0228789952687L107.7709090909091,232.61230272613466L108.09454545454545,232.9056034150223L108.41818181818182,233.59333389811218L108.74181818181819,233.43978070716065L109.06545454545454,233.1505666255123L109.3890909090909,228.56743065391976L109.71272727272726,233.3586758857386L110.03636363636363,234.38450191439026L110.36,233.75736720508172L110.68363636363637,235.3886115650336L111.00727272727273,230.90317105729545L111.3309090909091,234.16507503855973L111.65454545454546,233.40558898904257L111.97818181818182,235.3716125518808L112.30181818181818,231.85467040952707L112.62545454545455,233.59468226176168L112.9490909090909,233.42194915500778L113.27272727272727,232.61725018587376L113.59636363636363,234.85480624054455L113.92,235.66806107614602L114.24363636363637,234.66532497366683L114.56727272727274,234.0898374458775L114.8909090909091,233.61077104550267L115.21454545454544,233.1103617611031L115.53818181818181,234.669717916184L115.86181818181818,234.7392916641612L116.18545454545455,230.96250150000884L116.50909090909092,232.3210635042439L116.83272727272727,231.71067634452547L117.15636363636364,234.04984062082238L117.48,233.16417114767765L117.80363636363637,233.8815529624828L118.12727272727274,235.5537391773218L118.45090909090908,233.73165320511907L118.77454545454545,234.90068494714797L119.09818181818181,233.36697853335903L119.42181818181818,234.71131189736641L119.74545454545455,234.2892356114462L120.06909090909092,233.85609126556665L120.39272727272727,235.10072562310637L120.71636363636364,230.0122097834117L121.04,233.33833748226363L121.36363636363636,235.6547985291626L121.68727272727273,233.48147328953362L122.01090909090908,234.62954846272868L122.33454545454545,231.62120293784474L122.65818181818182,235.1709156285247L122.98181818181818,234.05608409094728L123.30545454545455,231.8205666082601L123.62909090909092,234.28892072869672L123.95272727272729,235.1579628510711L124.27636363636364,233.1131641107301L124.6,235.464788082211L124.92363636363636,232.1987858172506L125.24727272727273,234.37393418678806L125.57090909090908,233.72740801175433L125.89454545454545,234.77221934859537L126.21818181818182,231.76988132256602L126.54181818181819,234.65483814177827L126.86545454545455,233.9458775707624L127.18909090909092,233.82840218912398L127.51272727272726,233.19567224383354L127.83636363636363,232.97492249413497L128.16,234.51070350139506L128.48363636363635,233.5790100146292L128.80727272727273,233.4765478090073L129.13090909090909,233.55245668347925L129.45454545454547,232.64037628616725L129.77818181818182,233.99895736958004L130.1018181818182,233.0879365534832L130.42545454545456,234.30718652293498L130.7490909090909,234.89649668604963L131.07272727272726,233.4028022080246L131.39636363636365,234.7756745113681L131.72,235.1863675493126L132.04363636363635,234.2082916656509L132.36727272727273,235.4688418351062L132.6909090909091,232.7238866103192L133.01454545454547,233.9360037146964L133.33818181818182,235.10575184169122L133.66181818181818,231.37574702666865L133.98545454545453,233.0765446054025L134.3090909090909,232.8108812502275L134.63272727272727,234.67659328867578L134.95636363636365,233.94067170263992L135.28,231.96527652401065L135.60363636363635,232.3932380494144L135.92727272727274,233.04729088375137L136.2509090909091,232.17669060308899L136.57454545454544,232.21945146678223L136.8981818181818,235.16913218330592L137.22181818181818,234.2439645384956L137.54545454545453,233.5748052691213L137.86909090909091,234.92724507048518L138.19272727272727,234.01442050892447L138.51636363636365,234.84421027575928L138.84,233.8869903755064L139.16363636363636,234.09053955961846L139.48727272727274,235.31262515278326L139.8109090909091,230.38437768775557L140.13454545454545,235.42107615966557L140.4581818181818,233.57549486692167L140.78181818181818,234.8836278569781L141.10545454545453,233.73575553360087L141.42909090909092,234.68195148495334L141.75272727272727,235.05879386416117L142.07636363636365,234.74000202010694L142.4,231.79149268878L142.72363636363636,235.45764502885544L143.0472727272727,233.93313145896212L143.3709090909091,233.50308465574764L143.69454545454545,233.65345238718308L144.01818181818183,234.51065297973238L144.34181818181818,232.97728587004048L144.66545454545454,234.77482403794096L144.98909090909092,233.28421886037623L145.31272727272727,233.76074818801135L145.63636363636365,234.88038477834522L145.95999999999998,232.33663882915343L146.28363636363636,232.5749145588941L146.60727272727271,233.37064845135643L146.9309090909091,235.1221929796868L147.25454545454545,231.411641523242L147.57818181818183,235.1946218121383L147.9018181818182,235.17739453570294L148.22545454545454,235.07892438091545L148.54909090909092,233.5424265307892L148.87272727272727,232.6261139139533L149.19636363636363,234.75669271374744L149.51999999999998,233.9822278307337L149.84363636363636,233.0983351632539L150.16727272727272,234.28479687890245L150.4909090909091,235.42094630678184L150.81454545454545,234.07322070312995L151.13818181818183,233.88151434622705L151.4618181818182,235.4608701349029L151.78545454545454,235.39979967117932L152.1090909090909,234.80202506901696L152.43272727272728,233.27620468992328L152.75636363636363,232.80613587713904L153.07999999999998,233.4447535040478L153.40363636363637,235.44966596408955L153.72727272727272,232.23243019191756L154.0509090909091,232.89418857192828L154.37454545454545,233.7418288174603L154.69818181818184,233.9216447255264L155.02181818181816,233.9834655351523L155.34545454545454,233.3308080755588L155.6690909090909,233.05485173294113L155.99272727272728,234.7808074970316L156.31636363636363,235.16121111924036L156.64000000000001,234.27763776087926L156.96363636363637,233.38400814951294L157.28727272727272,234.26039064209908L157.6109090909091,233.41299476267562L157.93454545454546,235.11440279878053L158.2581818181818,235.10813834156014L158.58181818181816,233.2216721261955L158.90545454545455,233.3901171495931L159.2290909090909,234.08545442453277L159.55272727272728,234.05304577004992L159.87636363636364,234.55066201546126L160.20000000000002,234.45662196942914L160.52363636363637,233.75395600073452L160.84727272727272,234.17164957057685L161.17090909090908,234.5037017484299L161.49454545454546,234.58147946652025L161.8181818181818,233.59521602083825L162.14181818181817,232.75804474908446L162.46545454545455,233.74384922606663L162.7890909090909,232.85804680921137L163.11272727272728,232.5628989506513L163.43636363636364,234.62763688175215L163.76000000000002,235.44011176056748L164.08363636363637,234.63835602170892L164.40727272727273,234.84216285103724L164.73090909090908,234.2399678323418L165.05454545454546,231.68138415925205L165.37818181818182,234.93096947861423L165.70181818181817,234.7936775471705L166.02545454545455,232.64653077100712L166.3490909090909,235.22173446846298L166.6727272727273,232.6877008891768L166.99636363636364,235.12237987931195L167.32,234.67348750380592L167.64363636363635,233.82976780035014L167.96727272727273,234.70686538051814L168.29090909090908,234.45444694316637L168.61454545454546,234.75606233771478L168.93818181818182,233.89185129209525L169.26181818181817,235.43926952934515L169.58545454545455,235.29848481099017L169.9090909090909,232.7468069607599L170.2327272727273,233.8587408291383L170.55636363636364,235.71485043190316L170.88,235.2898787281269L171.20363636363635,235.17989268692003L171.52727272727273,231.95977195228141L171.85090909090908,234.76553133362904L172.17454545454547,233.2566868437247L172.49818181818182,234.10728069860488L172.8218181818182,234.54065170511603L173.14545454545456,232.66999388589628L173.4690909090909,235.1418655961752L173.79272727272726,233.81586106400937L174.11636363636364,235.53593002412364L174.44,234.71648159136788L174.76363636363635,235.33735649877536L175.08727272727273,234.9880243859564L175.4109090909091,232.6040022153821L175.73454545454547,235.73898645031213L176.05818181818182,234.54474182292407L176.3818181818182,233.4740230995748L176.70545454545453,231.46229567171798L177.0290909090909,235.25952993799L177.35272727272726,234.1555194231785L177.67636363636365,235.23675863408587L178,235.24479783642002L178.32363636363635,234.36025579004652L178.64727272727274,234.2057486402078L178.9709090909091,234.5022535625224L179.29454545454547,233.71872988591593L179.6181818181818,235.24144219063845L179.9418181818182,235.22722515055082L180.26545454545453,233.16785663428408L180.5890909090909,234.9236246057165L180.91272727272727,232.8768915420191L181.23636363636362,233.72399054943688L181.56,234.087253056777L181.88363636363636,233.69024925254698L182.20727272727274,233.42616275325418L182.5309090909091,233.0537735304485L182.85454545454547,235.40022181706607L183.1781818181818,235.14024127129878L183.5018181818182,235.3014275070487L183.82545454545453,233.9791801991976L184.1490909090909,233.2910095213188L184.47272727272727,233.17147313058376L184.79636363636362,235.01307267524925L185.12,233.88573496561085L185.44363636363636,234.75631967766418L185.76727272727274,233.94740970505194L186.0909090909091,232.94269608395797L186.41454545454548,234.39121686915558L186.73818181818183,235.44711458196656L187.0618181818182,234.51824435560656L187.38545454545454,234.4844587950243L187.7090909090909,235.37634899591404L188.03272727272727,234.1065895744703L188.35636363636362,233.30579512090318L188.68,234.8230587940456L189.00363636363636,234.17166223915086L189.32727272727274,235.1900734887976L189.6509090909091,235.22199425054714L189.97454545454548,235.64016560115851L190.29818181818183,234.68233367904193L190.62181818181816,234.53741984503966L190.94545454545454,234.4576388132862L191.2690909090909,235.03720317977584L191.59272727272727,235.306982753074L191.91636363636363,235.19795418132304L192.24,235.15902693497225L192.56363636363636,235.1862673454711L192.88727272727274,233.3322214610461L193.2109090909091,233.3657919611368L193.53454545454542,233.03114226770896L193.85818181818183,234.750148097881L194.18181818181816,234.36329350041018L194.50545454545454,235.433790409239L194.8290909090909,233.6621137233451L195.15272727272728,234.90160685301655L195.47636363636363,234.50402685761864L195.8,233.53568639150924L196.12363636363636,235.45420925052733L196.44727272727272,234.16479907733284L196.7709090909091,234.73189153796474L197.09454545454543,235.02857465979952L197.41818181818184,233.38918059091603L197.74181818181816,233.90081346873194L198.06545454545454,232.36483083272145L198.3890909090909,234.6733440283893L198.71272727272728,234.19618722475653L199.03636363636363,234.27829912149656L199.36,233.4670524838277L199.68363636363637,234.63796054851264L200.00727272727272,235.01398488889552L200.3309090909091,234.19156182153773L200.65454545454546,235.54358378890902L200.97818181818184,234.64233960138841L201.30181818181816,235.508772073831L201.62545454545455,234.86241616137949L201.9490909090909,235.43289300103464L202.27272727272728,235.34343840642313L202.59636363636363,234.6453850960566L202.92,234.8388566584844L203.24363636363637,233.3119016788486L203.56727272727272,235.43119316077272L203.8909090909091,234.38762799950524L204.21454545454546,235.76401256960042L204.53818181818184,234.86148013691937L204.86181818181817,234.78750444105307L205.18545454545458,233.9631456003214L205.5090909090909,234.4017334645614L205.83272727272725,234.53263600832886L206.15636363636364,234.18912823425813L206.48,235.35592824670795L206.80363636363637,233.91042342161137L207.12727272727273,234.04800459338975L207.4509090909091,234.04957488603478L207.77454545454546,235.06275370934355L208.09818181818184,234.88310562172492L208.42181818181817,234.68594162787002L208.74545454545452,234.73080417746678L209.0690909090909,235.49590694611996L209.39272727272726,234.71172431287252L209.71636363636364,234.39089679686975L210.04,233.9302769087048L210.36363636363637,235.763806857906L210.68727272727273,234.32465221277542L211.0109090909091,234.83368543814868L211.33454545454546,235.15370842338436L211.65818181818184,235.9422582470288L211.98181818181817,235.4790873153963L212.30545454545452,235.5552935579326L212.6290909090909,235.6023693684644L212.95272727272726,234.82068076533162L213.27636363636364,234.19215312341436L213.6,235.15982581830275L213.92363636363638,234.66092485737883L214.24727272727273,234.37919713981037L214.5709090909091,234.87932580766372L214.89454545454547,234.96043711600618L215.2181818181818,235.06365592550074L215.5418181818182,233.80274298455979L215.86545454545453,234.6725222500455L216.1890909090909,235.25057211140583L216.51272727272726,233.29740760910016L216.83636363636364,232.80870378182993L217.16,233.10865928791463L217.48363636363638,235.122757723348L217.80727272727273,235.40817115647306L218.13090909090909,233.73664279168264L218.45454545454547,234.34182896754808L218.7781818181818,235.1196578148649L219.1018181818182,235.06815281137824L219.42545454545453,234.84326761174535L219.7490909090909,233.94829574206636L220.07272727272726,234.7250558501627L220.39636363636365,235.06147082543208L220.72,235.20084330305045L221.04363636363635,233.95163200340338L221.36727272727273,235.25515233513175L221.6909090909091,234.55874731308884L222.01454545454547,234.70616723524614L222.3381818181818,234.8463775940343L222.6618181818182,235.50752669958294L222.98545454545453,234.08087755874212L223.3090909090909,234.19763052639448L223.63272727272727,234.9860439673066L223.95636363636365,234.11156801879406L224.28,234.62648053094745L224.60363636363635,234.4023711669983L224.92727272727274,234.73932867776603L225.2509090909091,233.926609738109L225.57454545454547,234.57879113405943L225.8981818181818,233.9062778978712L226.2218181818182,234.7564385790999L226.54545454545453,233.58342234159096L226.86909090909091,234.50674296936228L227.19272727272727,234.8808089466248L227.51636363636362,234.9455806181973L227.84,234.64137541606195L228.16363636363636,235.66634063037216L228.48727272727274,234.55364218302483L228.8109090909091,235.33920122631307L229.13454545454547,235.3753012437891L229.4581818181818,234.9835232263431L229.7818181818182,235.04443640132538L230.10545454545453,234.78064196608548L230.4290909090909,234.41829907511257L230.75272727272727,233.01116346857614L231.07636363636362,234.91719095434786L231.4,235.24995974611699L231.72363636363636,234.32617625749361L232.04727272727274,234.3938427745468L232.3709090909091,234.95991129386758L232.69454545454548,235.0423638684054L233.01818181818183,234.5575329615838L233.34181818181816,235.3002106370922L233.66545454545454,234.97024976607L233.9890909090909,235.01611053824632L234.31272727272727,235.08220294681897L234.63636363636363,234.14938081221447L234.96,233.88797577687848L235.28363636363636,235.3649889863769L235.60727272727274,234.23499701968913L235.9309090909091,234.08973060248212L236.25454545454548,235.17727563426726L236.57818181818183,235.1891064034361L236.90181818181816,234.0528203304857L237.22545454545454,232.9553426787671L237.5490909090909,234.4813804841704L237.87272727272727,233.640003856375L238.19636363636363,234.39968649773962L238.52,235.29431326325155L238.84363636363636,235.75072411309358L239.16727272727275,235.13500976076142L239.4909090909091,235.78710945967276L239.81454545454542,234.74081761679716L240.13818181818183,234.5491590341553L240.46181818181816,235.3792617376635L240.78545454545454,234.83140127898918L241.1090909090909,234.69876634588258L241.43272727272728,235.45542241912335L241.75636363636363,234.6491185095575L242.08,233.24094453785156L242.40363636363637,235.06663464304683L242.72727272727272,234.67716032183833L243.0509090909091,234.25728897833162L243.37454545454545,233.81858465479064L243.69818181818184,235.3720404978376L244.02181818181816,234.92372564904184L244.34545454545454,235.83691538606462L244.6690909090909,234.7705116095539L244.99272727272728,233.14378237517343L245.31636363636363,235.27405117648757L245.64,235.25616543946995L245.96363636363637,234.1122725746698L246.28727272727272,235.904306218539L246.6109090909091,234.82350135465256L246.93454545454546,234.1181698721937L247.25818181818184,234.4220944577828L247.58181818181816,234.6300771849023L247.90545454545457,235.60823514718666L248.2290909090909,235.50770802808822L248.55272727272728,234.3961228126039L248.87636363636364,235.5795547929851L249.2,234.71509903783186L249.52363636363637,235.5475582868999L249.84727272727272,233.19553792642222L250.1709090909091,234.98129699156723L250.49454545454546,234.19974694142326L250.81818181818184,234.96755197033698L251.14181818181817,234.0900647170428L251.46545454545458,233.53855055767215L251.7890909090909,235.07573487661367L252.11272727272726,235.3812128506963L252.43636363636364,235.49259808248217L252.76,234.0399252484656L253.08363636363637,235.61204918929272L253.40727272727273,233.58047529547994L253.7309090909091,235.15379756130278L254.05454545454546,235.59382224026032L254.37818181818184,233.16503688444692L254.70181818181817,235.46581431302346L255.02545454545452,234.47481602595911L255.3490909090909,234.44743023212587L255.67272727272726,234.16402507325012L255.99636363636364,234.82544071491185L256.32,235.34882163458195L256.6436363636364,233.73726049914129L256.9672727272727,234.59983439867693L257.2909090909091,235.7707246052515L257.61454545454546,234.8821396811141L257.9381818181818,234.7075152936288L258.26181818181817,234.91081789844773L258.5854545454545,232.56191263347864L258.90909090909093,234.78936290559878L259.2327272727273,234.59260491664625L259.55636363636364,233.3887022377716L259.88,234.75865619008738L260.2036363636364,233.6320192968059L260.5272727272727,234.98798134333146L260.8509090909091,235.77080746612046L261.17454545454547,234.7393979733396L261.4981818181818,235.39702441398467L261.8218181818182,233.82058018414926L262.1454545454545,233.94238501280134L262.46909090909094,235.22205957765172L262.7927272727273,234.7512815536724L263.11636363636364,234.99717888070478L263.44,233.6435821943192L263.7636363636364,235.4630997657724L264.0872727272727,235.29785107702224L264.41090909090906,234.8850284212579L264.73454545454547,235.04519010516296L265.0581818181818,235.0887608417931L265.3818181818182,234.69933719488068L265.70545454545453,234.44830253213232L266.02909090909094,235.37646724865772L266.3527272727273,234.57412085661457L266.67636363636365,234.41190465053336L267,235.01747790475684L267.32363636363635,233.99867515038287L267.6472727272727,235.63251412587448L267.97090909090906,235.25718205437687L268.29454545454547,233.6092135740651L268.6181818181818,234.5710982569597L268.9418181818182,234.48596238686395L269.26545454545453,235.09796158446827L269.58909090909094,234.766277024212L269.9127272727273,235.1639518049649L270.2363636363636,234.18936817399745L270.56,235.06812541367898L270.88363636363636,234.00367313178464L271.2072727272727,234.10100838076323L271.53090909090906,233.68119198528842L271.8545454545455,233.90121703149958L272.1781818181818,235.24836816110957L272.5018181818182,234.8722548354417L272.82545454545453,235.10172727993793L273.1490909090909,234.68898178036844L273.4727272727273,234.11551344011806L273.7963636363636,234.93308932789498L274.12,233.09658415263726L274.44363636363636,234.71607787596685L274.7672727272727,233.95649276735884L275.09090909090907,235.37824504643987L275.4145454545455,235.47516944440494L275.73818181818183,234.45231022789247L276.0618181818182,234.05835710786695L276.38545454545454,234.64170296738547L276.7090909090909,234.82959432822344L277.0327272727273,234.34512645999592L277.3563636363636,234.94365339229506L277.68,235.20917823263963L278.00363636363636,234.06516150581754L278.3272727272727,235.53445566158433L278.65090909090907,235.1019043347074L278.9745454545455,235.02831403823157L279.29818181818183,235.4714840722736L279.6218181818182,234.46549119231187L279.94545454545454,234.1971500363822L280.2690909090909,233.53326699913788L280.5927272727273,235.0759702373503L280.9163636363636,233.6234090928402L281.24,235.26662556050968L281.56363636363636,233.52426849574678L281.8872727272727,235.5089716420302L282.21090909090907,233.96694846202928L282.5345454545454,234.19256752315496L282.85818181818183,234.82903813203384L283.1818181818182,232.67222721812624L283.50545454545454,234.86655100078013L283.8290909090909,234.8925859125124L284.1527272727273,233.91966094894127L284.47636363636366,234.17001211922616L284.8,234.45279682324164L285.12363636363636,234.77065203230205L285.4472727272727,234.2599443419733L285.7709090909091,235.14148034941817L286.0945454545454,235.63816484410523L286.41818181818184,234.85522773773928L286.7418181818182,235.13840417543219L287.06545454545454,235.0013377598694L287.3890909090909,235.03398864359286L287.7127272727273,235.66444492327153L288.03636363636366,235.33242277604424L288.36,234.87476794473415L288.68363636363637,234.34295952330447L289.0072727272727,235.32492313285667L289.3309090909091,235.0908506986064L289.6545454545454,234.7039522190268L289.97818181818184,235.63046322874206L290.3018181818182,235.33364437763683L290.62545454545455,234.5284259206512L290.9490909090909,235.2082345001917L291.2727272727273,234.88922461929423L291.59636363636366,233.50841568327613L291.91999999999996,235.78228971594945L292.24363636363637,235.18425250798464L292.5672727272727,235.07693022525766L292.8909090909091,234.6725179763097L293.21454545454543,234.41096442865415L293.53818181818184,234.34848515844595L293.8618181818182,234.96135596920632L294.18545454545455,234.2771046123364L294.5090909090909,235.15079083552376L294.83272727272725,233.80855373893345L295.15636363636366,235.14185956715502L295.47999999999996,234.62997568367672L295.8036363636364,235.6673008090713L296.1272727272727,233.98806331172173L296.4509090909091,235.3853296411948L296.77454545454543,234.69256652891636L297.09818181818184,235.28167536854744L297.4218181818182,233.90131761692464L297.74545454545455,234.97664174851442L298.0690909090909,235.45515767645298L298.39272727272726,235.3852927802234L298.71636363636367,234.67920744129353L299.03999999999996,234.34460109575755L299.3636363636364,234.63559442520554L299.6872727272727,235.46140904535747L300.0109090909091,235.29839490990463L300.33454545454543,235.09388054834886L300.65818181818184,235.86496513528337L300.9818181818182,234.96363913624856L301.30545454545455,235.41656263674506L301.6290909090909,234.43331728803201L301.95272727272726,234.75157682302716L302.27636363636367,234.8169670415421L302.59999999999997,234.79866202051443L302.9236363636364,234.4853106421522L303.24727272727273,234.48512824521296L303.5709090909091,234.124075259289L303.89454545454544,234.56936800448847L304.2181818181818,235.20241695363075L304.5418181818182,234.41818139474427L304.86545454545455,233.6902584105523L305.1890909090909,233.67897330586695L305.51272727272726,234.08577052834963L305.83636363636367,234.65207028730464L306.15999999999997,233.88505376264865L306.4836363636364,235.7871528838813L306.80727272727273,233.55013650283217L307.1309090909091,234.13491833758437L307.45454545454544,234.3603347015257L307.7781818181818,234.46849486542243L308.1018181818182,235.24455965196506L308.42545454545456,234.80356926134684L308.7490909090909,234.82804517530732L309.07272727272726,235.1015822781871L309.3963636363637,234.44502076092695L309.71999999999997,234.5567820051478L310.0436363636363,234.12408212779297L310.36727272727273,235.16101330632551L310.6909090909091,234.97571503469308L311.01454545454544,234.7592606184383L311.3381818181818,234.9323942352914L311.6618181818182,233.9714806062273L311.98545454545456,233.9779516527843L312.3090909090909,235.0257854366468L312.63272727272727,234.35889887892537L312.9563636363637,233.37849228291049L313.28000000000003,235.2055457098306L313.6036363636363,235.08964001030353L313.92727272727274,235.25058752738147L314.2509090909091,234.36844869423658L314.57454545454544,235.30663680942317L314.8981818181818,235.01359109466688L315.2218181818182,234.99014652473852L315.54545454545456,234.3728503368588L315.8690909090909,234.41727765225286L316.19272727272727,234.98805758372572L316.5163636363636,234.23530121809907L316.84000000000003,234.32856161261185L317.16363636363633,234.0248128607248L317.48727272727274,234.67245341237222L317.8109090909091,234.93836807847646L318.13454545454545,234.56781053305085L318.4581818181818,234.0569742490641L318.7818181818182,234.17489470976096L319.10545454545456,234.52093986183817L319.4290909090909,235.15973065136413L319.75272727272727,234.17318323120062L320.0763636363636,235.5336501005416L320.40000000000003,234.3475713421487L320.72363636363633,233.36623368225992L321.04727272727274,234.53970278313176L321.3709090909091,235.31694368650724L321.69454545454545,232.4654324369298L322.0181818181818,234.079648707062L322.34181818181816,235.3108071360944L322.66545454545457,235.47417965482197L322.9890909090909,235.5471528925312L323.3127272727273,235.25162177144858L323.6363636363636,234.96093775363016L323.96000000000004,235.19302267177653L324.28363636363633,235.1382651263848L324.60727272727274,234.68357046766L324.9309090909091,234.90980715992757L325.25454545454545,235.2833250305719L325.5781818181818,234.2260171375755L325.90181818181816,233.5801031751972L326.22545454545457,235.31115575083012L326.5490909090909,235.33367421747081L326.8727272727273,234.19556509092862L327.1963636363636,234.7036713735304L327.52000000000004,232.85739231709803L327.84363636363634,234.47149899643327L328.16727272727275,235.35196397515637L328.4909090909091,234.634487680263L328.81454545454545,234.8184300328915L329.1381818181818,235.03121224164755L329.46181818181816,234.62177591098265L329.78545454545457,234.54581315691274L330.1090909090909,233.4545023533412L330.4327272727273,234.9340788503695L330.75636363636363,234.54783310761883L331.08000000000004,234.82297919571607" stroke="rgb(83, 135, 221)" stroke-width="2" stroke-dasharray="4,2"/></g></g><path class="foreground" aria-hidden="true" d="" display="none"/></g></g><g class="mark-group role-legend" role="graphics-symbol" aria-roledescription="legend" aria-label="Symbol legend titled 'name' for stroke color with 1 value: w256_noise_16_1.4_scale^0_N2049"><g transform="translate(374,0)"><path class="background" aria-hidden="true" d="M0,0h174v27h-174Z" pointer-events="none"/><g><g class="mark-group role-legend-entry"><g transform="translate(0,16)"><path class="background" aria-hidden="true" d="M0,0h0v0h0Z" pointer-events="none"/><g><g class="mark-group role-scope" role="graphics-object" aria-roledescription="group mark container"><g transform="translate(0,0)"><path class="background" aria-hidden="true" d="M0,0h173.0263671875v11h-173.0263671875Z" pointer-events="none" opacity="1"/><g><g class="mark-symbol role-legend-symbol" pointer-events="none"><path transform="translate(6,6)" d="M-5,0L5,0" stroke="rgb(83, 135, 221)" stroke-width="1.5" opacity="1"/></g><g class="mark-text role-legend-label" pointer-events="none"><text text-anchor="start" transform="translate(16,9)" font-family="sans-serif" font-size="10px" fill="#000" opacity="1">w256_noise_16_1.4_scale^0_N2</text></g></g><path class="foreground" aria-hidden="true" d="" pointer-events="none" display="none"/></g></g></g><path class="foreground" aria-hidden="true" d="" pointer-events="none" display="none"/></g></g><g class="mark-text role-legend-title" pointer-events="none"><text text-anchor="start" transform="translate(0,9)" font-family="sans-serif" font-size="11px" font-weight="bold" fill="#000" opacity="1">name</text></g></g><path class="foreground" aria-hidden="true" d="" pointer-events="none" display="none"/></g></g><g class="mark-group role-legend" role="graphics-symbol" aria-roledescription="legend" aria-label="Symbol legend titled 'lineKey' for strokeDash with 2 values: Ground Truth, Prediction"><g transform="translate(374,35)"><path class="background" aria-hidden="true" d="M0,0h76v40h-76Z" pointer-events="none"/><g><g class="mark-group role-legend-entry"><g transform="translate(0,16)"><path class="background" aria-hidden="true" d="M0,0h0v0h0Z" pointer-events="none"/><g><g class="mark-group role-scope" role="graphics-object" aria-roledescription="group mark container"><g transform="translate(0,0)"><path class="background" aria-hidden="true" d="M0,0h75.1064453125v11h-75.1064453125Z" pointer-events="none" opacity="1"/><g><g class="mark-symbol role-legend-symbol" pointer-events="none"><path transform="translate(6,6)" d="M-5,0L5,0" stroke="#888" stroke-width="1.5" stroke-dasharray="1,0" opacity="1"/></g><g class="mark-text role-legend-label" pointer-events="none"><text text-anchor="start" transform="translate(16,9)" font-family="sans-serif" font-size="10px" fill="#000" opacity="1">Ground Truth</text></g></g><path class="foreground" aria-hidden="true" d="" pointer-events="none" display="none"/></g><g transform="translate(0,13)"><path class="background" aria-hidden="true" d="M0,0h75.1064453125v11h-75.1064453125Z" pointer-events="none" opacity="1"/><g><g class="mark-symbol role-legend-symbol" pointer-events="none"><path transform="translate(6,6)" d="M-5,0L5,0" stroke="#888" stroke-width="1.5" stroke-dasharray="4,2" opacity="1"/></g><g class="mark-text role-legend-label" pointer-events="none"><text text-anchor="start" transform="translate(16,9)" font-family="sans-serif" font-size="10px" fill="#000" opacity="1">Prediction</text></g></g><path class="foreground" aria-hidden="true" d="" pointer-events="none" display="none"/></g></g></g><path class="foreground" aria-hidden="true" d="" pointer-events="none" display="none"/></g></g><g class="mark-text role-legend-title" pointer-events="none"><text text-anchor="start" transform="translate(0,9)" font-family="sans-serif" font-size="11px" font-weight="bold" fill="#000" opacity="1">lineKey</text></g></g><path class="foreground" aria-hidden="true" d="" pointer-events="none" display="none"/></g></g><g class="mark-group role-title"><g transform="translate(178,-22)"><path class="background" aria-hidden="true" d="M0,0h0v0h0Z" pointer-events="none"/><g><g class="mark-text role-title-text" role="graphics-symbol" aria-roledescription="title" aria-label="Title text 'FFT Approximation'" pointer-events="none"><text text-anchor="middle" transform="translate(0,10)" font-family="sans-serif" font-size="13px" font-weight="bold" fill="#000" opacity="1">FFT Approximation</text></g></g><path class="foreground" aria-hidden="true" d="" pointer-events="none" display="none"/></g></g></g><path class="foreground" aria-hidden="true" d="" display="none"/></g></g></g><defs><clipPath id="clip3"><rect x="0" y="0" width="356" height="236"/></clipPath><clipPath id="clip4"><rect x="0" y="0" width="356" height="236"/></clipPath></defs></svg>